<?xml version="1.0" encoding="utf-8"?>
<svg version="1.1" xmlns:xlink="http://www.w3.org/1999/xlink" width="335px" height="76px" xmlns="http://www.w3.org/2000/svg">
  <g transform="matrix(1 0 0 1 -69 -685 )">
    <path d="M 69 744.440616855381  C 69 744.440616855381  69 688  69 688  C 69 686.343145750508  70.3431457505076 685  72 685  C 72 685  401 685  401 685  C 402.656854249492 685  404 686.343145750508  404 688  C 404 688  404 744.440616855381  404 744.440616855381  C 404 746.097471104873  402.656854249492 747.440616855381  401 747.440616855381  C 401 747.440616855381  144.335403726708 747.440616855381  144.335403726708 747.440616855381  C 144.335403726708 747.440616855381  134.162008281573 760.442655924201  134.162008281573 760.442655924201  C 134.162008281573 760.442655924201  124.335403726708 747.440616855381  124.335403726708 747.440616855381  C 124.335403726708 747.440616855381  72 747.440616855381  72 747.440616855381  C 70.3431457505076 747.440616855381  69 746.097471104873  69 744.440616855381  Z " fill-rule="nonzero" fill="#319ff0" stroke="none" fill-opacity="0.8" />
  </g>
</svg>